<svg xmlns="http://www.w3.org/2000/svg" width="18" height="18.505" viewBox="0 0 18 18.505"><path d="M19.283,13.159a6.379,6.379,0,0,0,0-1.813l1.952-1.527a.467.467,0,0,0,.111-.592l-1.85-3.2a.465.465,0,0,0-.564-.2l-2.3.925a6.76,6.76,0,0,0-1.564-.907l-.352-2.452A.451.451,0,0,0,14.259,3h-3.7a.451.451,0,0,0-.453.389L9.753,5.841a7.109,7.109,0,0,0-1.564.907l-2.3-.925a.451.451,0,0,0-.564.2l-1.85,3.2a.456.456,0,0,0,.111.592l1.952,1.527a7.338,7.338,0,0,0-.065.907,7.338,7.338,0,0,0,.065.907L3.581,14.686a.467.467,0,0,0-.111.592l1.85,3.2a.465.465,0,0,0,.564.2l2.3-.925a6.76,6.76,0,0,0,1.564.907l.352,2.452a.451.451,0,0,0,.453.389h3.7a.451.451,0,0,0,.453-.389l.352-2.452a7.109,7.109,0,0,0,1.564-.907l2.3.925a.451.451,0,0,0,.564-.2l1.85-3.2a.467.467,0,0,0-.111-.592l-1.952-1.527Zm-6.875,2.332a3.238,3.238,0,1,1,3.238-3.238A3.242,3.242,0,0,1,12.408,15.491Z" transform="translate(-3.406 -3)" fill="#6a2f19"/></svg>