<svg xmlns="http://www.w3.org/2000/svg" width="50.001" height="50.001" viewBox="0 0 50.001 50.001"><path d="M-6883-2454a24.841,24.841,0,0,1-9.731-1.965,24.909,24.909,0,0,1-7.946-5.358,24.918,24.918,0,0,1-5.358-7.947A24.855,24.855,0,0,1-6908-2479a24.855,24.855,0,0,1,1.964-9.731,24.912,24.912,0,0,1,5.358-7.946,24.914,24.914,0,0,1,7.946-5.358A24.837,24.837,0,0,1-6883-2504a24.848,24.848,0,0,1,9.732,1.965,24.914,24.914,0,0,1,7.946,5.358,24.908,24.908,0,0,1,5.358,7.946A24.856,24.856,0,0,1-6858-2479a24.855,24.855,0,0,1-1.964,9.731,24.914,24.914,0,0,1-5.358,7.947,24.909,24.909,0,0,1-7.946,5.358A24.852,24.852,0,0,1-6883-2454Zm3-33.5v17.5h5v-17.5Zm-10,0v17.5h5v-17.5Z" transform="translate(6908 2504)" fill="#fff"/></svg>