<svg xmlns="http://www.w3.org/2000/svg" width="22.758" height="30.342" viewBox="0 0 22.758 30.342"><g transform="translate(1 -10)"><path d="M25.758,28.157V3.421A3.416,3.416,0,0,0,22.355,0H6.4A3.416,3.416,0,0,0,3,3.421V28.156a2.175,2.175,0,0,0,3.433,1.783L14.221,24.4a.274.274,0,0,1,.316,0l7.788,5.541a2.175,2.175,0,0,0,3.433-1.781Zm-1.9,0a.279.279,0,0,1-.154.258.261.261,0,0,1-.283-.021l-7.788-5.541a2.169,2.169,0,0,0-2.513,0L5.334,28.394a.263.263,0,0,1-.283.021.28.28,0,0,1-.154-.258V3.421A1.518,1.518,0,0,1,6.4,1.9H22.354A1.517,1.517,0,0,1,23.86,3.421V28.157Z" transform="translate(-4 10)" fill="#fff"/></g></svg>