<svg xmlns="http://www.w3.org/2000/svg" width="20" height="14.346" viewBox="0 0 20 14.346"><path d="M352.78,327.621h.608a10.082,10.082,0,0,0,6.4-2.746.766.766,0,0,1,1.276.572v12.814a.766.766,0,0,1-1.276.572,10.082,10.082,0,0,0-6.4-2.746h-.608a4.233,4.233,0,0,1,0-8.467Zm6.753-.59a11.164,11.164,0,0,1-5.379,2.088v5.47a11.163,11.163,0,0,1,5.379,2.088Zm-6.911,7.52v-5.393a2.7,2.7,0,0,0,0,5.393Z" transform="translate(-348.547 -324.682)" fill="#fff"/><path d="M251.082,347.336a.766.766,0,0,1,1.084-1.083,7.524,7.524,0,0,1,0,10.625.766.766,0,0,1-1.083-1.083A5.99,5.99,0,0,0,251.082,347.336Z" transform="translate(-234.362 -344.393)" fill="#fff"/><path d="M290.7,375.372a.766.766,0,0,1,1.083-1.083,4.483,4.483,0,0,1,0,6.333.766.766,0,0,1-1.083-1.083A2.95,2.95,0,0,0,290.7,375.372Z" transform="translate(-276.122 -370.282)" fill="#fff"/></svg>