<svg xmlns="http://www.w3.org/2000/svg" width="50" height="50" viewBox="0 0 50 50"><path d="M-6836-2395a24.844,24.844,0,0,1-9.731-1.965,24.909,24.909,0,0,1-7.946-5.358,24.918,24.918,0,0,1-5.358-7.947A24.841,24.841,0,0,1-6861-2420a24.844,24.844,0,0,1,1.965-9.731,24.92,24.92,0,0,1,5.358-7.947,24.92,24.92,0,0,1,7.946-5.358A24.845,24.845,0,0,1-6836-2445a24.847,24.847,0,0,1,9.731,1.964,24.92,24.92,0,0,1,7.946,5.358,24.913,24.913,0,0,1,5.358,7.947A24.856,24.856,0,0,1-6811-2420a24.852,24.852,0,0,1-1.964,9.731,24.913,24.913,0,0,1-5.358,7.947,24.909,24.909,0,0,1-7.946,5.358A24.847,24.847,0,0,1-6836-2395Zm-4.085-32.887a1.8,1.8,0,0,0-1.8,1.8v12.169a1.805,1.805,0,0,0,1.8,1.8,1.777,1.777,0,0,0,.89-.24l12.168-6.955a1.789,1.789,0,0,0,.9-1.664,1.79,1.79,0,0,0-1.088-1.552l-12.168-5.216a1.8,1.8,0,0,0-.709-.147Z" transform="translate(6861.001 2445)" fill="#fff"/></svg>