<svg xmlns="http://www.w3.org/2000/svg" width="52" height="50.323" viewBox="0 0 52 50.323">
  <g id="svg_special_offer" transform="translate(-8 -16)">
    <g id="Grupo_562" data-name="Grupo 562" transform="translate(8 16)">
      <path id="Trazado_215" data-name="Trazado 215" d="M58.037,44.837C58.232,43.6,60,42.456,60,41.161s-1.768-2.436-1.963-3.676c-.2-1.273,1.127-2.9.738-4.1-.4-1.221-2.431-1.758-3.007-2.886s.175-3.1-.572-4.128-2.852-.915-3.752-1.815-.784-3-1.815-3.752a2.635,2.635,0,0,0-1.562-.356H46.323a2.306,2.306,0,0,1-.822-.216c-1.127-.576-1.665-2.61-2.886-3.007a1.561,1.561,0,0,0-.485-.072H40.454a9.682,9.682,0,0,0-2.405.667C36.984,17.35,35.97,16,34.839,16H33.161c-1.131,0-2.145,1.35-3.211,1.821a9.684,9.684,0,0,0-2.4-.667H25.869a1.561,1.561,0,0,0-.485.072c-1.221.4-1.758,2.431-2.886,3.007s-3.1-.175-4.128.572-.915,2.852-1.815,3.752-3,.784-3.752,1.815.009,2.989-.572,4.128-2.61,1.665-3.007,2.886c-.389,1.2.938,2.829.738,4.1C9.768,38.726,8,39.867,8,41.161S9.768,43.6,9.963,44.837c.2,1.273-1.127,2.9-.738,4.1.4,1.221,2.431,1.758,3.007,2.886s-.175,3.1.572,4.128,2.852.915,3.752,1.815.784,3,1.815,3.752,2.989-.009,4.128.572,1.665,2.61,2.886,3.007a1.562,1.562,0,0,0,.485.072h1.677a9.688,9.688,0,0,0,2.4-.667c1.065.471,2.079,1.821,3.21,1.821h1.677c1.131,0,2.145-1.35,3.21-1.821a9.687,9.687,0,0,0,2.405.667h1.677a1.561,1.561,0,0,0,.485-.071c1.221-.4,1.758-2.431,2.886-3.007a2.306,2.306,0,0,1,.822-.216h1.744a2.634,2.634,0,0,0,1.562-.356c1.031-.751.915-2.852,1.815-3.752s3-.784,3.752-1.815-.009-2.989.572-4.128,2.61-1.665,3.007-2.886c.389-1.2-.938-2.829-.738-4.1Z" transform="translate(-8 -16)" fill="#231e26"/>
    </g>
    <g id="Grupo_563" data-name="Grupo 563" transform="translate(8 16)">
      <path id="Trazado_216" data-name="Trazado 216" d="M58.323,41.161c0,1.295-1.768,2.436-1.963,3.676-.2,1.273,1.127,2.9.738,4.1-.4,1.221-2.431,1.758-3.007,2.886s.175,3.1-.572,4.128-2.852.915-3.752,1.815-.784,3-1.815,3.752-2.989-.009-4.128.572S42.159,64.7,40.938,65.1c-1.2.389-2.829-.938-4.1-.738-1.24.195-2.381,1.963-3.676,1.963s-2.436-1.768-3.676-1.963c-1.273-.2-2.9,1.127-4.1.738-1.221-.4-1.758-2.431-2.886-3.007s-3.1.175-4.128-.572-.915-2.852-1.815-3.752-3-.784-3.752-1.815.009-2.989-.572-4.128-2.61-1.665-3.007-2.886c-.389-1.2.938-2.829.738-4.1C9.768,43.6,8,42.456,8,41.161s1.768-2.436,1.963-3.676c.2-1.273-1.127-2.9-.738-4.1.4-1.221,2.431-1.758,3.007-2.886s-.175-3.1.572-4.128,2.852-.915,3.752-1.815.784-3,1.815-3.752,2.989.009,4.128-.572,1.665-2.61,2.886-3.007c1.2-.389,2.829.938,4.1.738C30.726,17.768,31.867,16,33.161,16s2.436,1.768,3.676,1.963c1.273.2,2.9-1.127,4.1-.738,1.221.4,1.758,2.431,2.886,3.007s3.1-.175,4.128.572.915,2.852,1.815,3.752,3,.784,3.752,1.815-.009,2.989.572,4.128,2.61,1.665,3.007,2.886c.389,1.2-.938,2.829-.738,4.1.195,1.24,1.963,2.381,1.963,3.676Z" transform="translate(-8 -16)" fill="#ffde00"/>
    </g>
    <g id="Grupo_564" data-name="Grupo 564" transform="translate(12.855 21.286)">
      <ellipse id="Elipse_17" data-name="Elipse 17" cx="20.39" cy="20.013" rx="20.39" ry="20.013" transform="translate(0 0)" fill="#231e26"/>
    </g>
    <g id="Grupo_565" data-name="Grupo 565" transform="translate(17.645 30.677)">
      <path id="Trazado_217" data-name="Trazado 217" d="M102.1,156a2.1,2.1,0,0,0-2.1,2.1v1.479a2.085,2.085,0,0,0,1.159,1.875l1.5.75a1.251,1.251,0,0,1,.7,1.125v1.479a1.258,1.258,0,0,1-2.516,0v-.839a.419.419,0,0,0-.839,0v.839a2.1,2.1,0,0,0,4.194,0v-1.479a2.085,2.085,0,0,0-1.159-1.875l-1.5-.75a1.251,1.251,0,0,1-.7-1.125V158.1a1.258,1.258,0,1,1,2.516,0v.839a.419.419,0,1,0,.839,0V158.1A2.1,2.1,0,0,0,102.1,156Z" transform="translate(-100 -156)" fill="#ff7948"/>
      <path id="Trazado_218" data-name="Trazado 218" d="M152.764,156h-1.677a.419.419,0,0,0-.419.419v10.065a.419.419,0,1,0,.839,0v-4.613h1.258a2.1,2.1,0,0,0,2.1-2.1V158.1A2.1,2.1,0,0,0,152.764,156Zm1.258,3.774a1.259,1.259,0,0,1-1.258,1.258h-1.258v-4.194h1.258a1.259,1.259,0,0,1,1.258,1.258Z" transform="translate(-145.355 -156)" fill="#ff7948"/>
      <path id="Trazado_219" data-name="Trazado 219" d="M200.764,156.839h1.677a.419.419,0,1,0,0-.839h-1.677a2.1,2.1,0,0,0-2.1,2.1v6.71a2.1,2.1,0,0,0,2.1,2.1h1.677a.419.419,0,0,0,0-.839h-1.677a1.259,1.259,0,0,1-1.258-1.258v-2.936h2.1a.419.419,0,1,0,0-.839h-2.1V158.1A1.259,1.259,0,0,1,200.764,156.839Z" transform="translate(-188.323 -156)" fill="#ff7948"/>
      <path id="Trazado_220" data-name="Trazado 220" d="M248.764,156.839h1.677a.419.419,0,1,0,0-.839h-1.677a2.1,2.1,0,0,0-2.1,2.1v6.71a2.1,2.1,0,0,0,2.1,2.1h1.677a.419.419,0,1,0,0-.839h-1.677a1.259,1.259,0,0,1-1.258-1.258V158.1A1.259,1.259,0,0,1,248.764,156.839Z" transform="translate(-231.291 -156)" fill="#ff7948"/>
      <path id="Trazado_221" data-name="Trazado 221" d="M297.752,156a.419.419,0,0,0-.419.419v10.065a.419.419,0,1,0,.839,0V156.419A.419.419,0,0,0,297.752,156Z" transform="translate(-276.645 -156)" fill="#ff7948"/>
      <path id="Trazado_222" data-name="Trazado 222" d="M323.43,156a2.1,2.1,0,0,0-2.1,2.1v8.387a.419.419,0,1,0,.839,0v-4.613h2.516v4.613a.419.419,0,1,0,.839,0V158.1A2.1,2.1,0,0,0,323.43,156Zm-1.258,5.032V158.1a1.258,1.258,0,1,1,2.516,0v2.936Z" transform="translate(-298.129 -156)" fill="#ff7948"/>
      <path id="Trazado_223" data-name="Trazado 223" d="M381.107,166.064H379.43a1.259,1.259,0,0,1-1.258-1.258v-8.387a.419.419,0,0,0-.839,0v8.387a2.1,2.1,0,0,0,2.1,2.1h1.677a.419.419,0,0,0,0-.839Z" transform="translate(-348.258 -156)" fill="#ff7948"/>
    </g>
    <g id="Grupo_566" data-name="Grupo 566" transform="translate(20.72 44.097)">
      <path id="Trazado_224" data-name="Trazado 224" d="M131.43,284a2.1,2.1,0,0,0-2.1,2.1v6.71a2.1,2.1,0,0,0,4.194,0V286.1A2.1,2.1,0,0,0,131.43,284Zm1.258,8.806a1.258,1.258,0,0,1-2.516,0V286.1a1.258,1.258,0,1,1,2.516,0Z" transform="translate(-129.333 -284)" fill="#e6e6eb"/>
      <path id="Trazado_225" data-name="Trazado 225" d="M186.441,284h-1.677a2.1,2.1,0,0,0-2.1,2.1v8.387a.419.419,0,0,0,.839,0v-4.613h2.1a.419.419,0,1,0,0-.839h-2.1V286.1a1.259,1.259,0,0,1,1.258-1.258h1.677a.419.419,0,1,0,0-.839Z" transform="translate(-177.076 -284)" fill="#e6e6eb"/>
      <path id="Trazado_226" data-name="Trazado 226" d="M231.774,284H230.1a2.1,2.1,0,0,0-2.1,2.1v8.387a.419.419,0,0,0,.839,0v-4.613h2.1a.419.419,0,1,0,0-.839h-2.1V286.1a1.259,1.259,0,0,1,1.258-1.258h1.677a.419.419,0,1,0,0-.839Z" transform="translate(-217.656 -284)" fill="#e6e6eb"/>
      <path id="Trazado_227" data-name="Trazado 227" d="M275.43,284.839h1.677a.419.419,0,1,0,0-.839H275.43a2.1,2.1,0,0,0-2.1,2.1v6.71a2.1,2.1,0,0,0,2.1,2.1h1.677a.419.419,0,0,0,0-.839H275.43a1.259,1.259,0,0,1-1.258-1.258v-2.936h2.1a.419.419,0,0,0,0-.839h-2.1V286.1A1.26,1.26,0,0,1,275.43,284.839Z" transform="translate(-258.236 -284)" fill="#e6e6eb"/>
      <path id="Trazado_228" data-name="Trazado 228" d="M325.526,287.774V286.1a2.1,2.1,0,0,0-2.1-2.1h-1.677a.419.419,0,0,0-.419.419v10.065a.419.419,0,0,0,.839,0v-4.613h1.258a1.26,1.26,0,0,1,1.258,1.258v3.355a.419.419,0,0,0,.839,0v-3.355a2.092,2.092,0,0,0-.844-1.677A2.092,2.092,0,0,0,325.526,287.774Zm-.839,0a1.259,1.259,0,0,1-1.258,1.258h-1.258v-4.194h1.258a1.259,1.259,0,0,1,1.258,1.258Z" transform="translate(-301.204 -284)" fill="#e6e6eb"/>
    </g>
  </g>
</svg>
